<svg enable-background="new 0 0 512 512" viewBox="0 0 512 512" xmlns="http://www.w3.org/2000/svg"><path d="m494.661 425.149c-159.52-37.139-319.04 45.468-478.559 8.329-8.893-2.062-16.102-11.38-16.102-20.266 0-104.808 0-209.616 0-314.424 0-8.898 7.209-13.998 16.101-11.937 159.52 37.139 319.04-45.468 478.559-8.329 8.892 2.061 16.101 11.379 16.101 20.266v314.424c.001 8.898-7.208 13.998-16.1 11.937z" fill="#e8e8e8"/><circle cx="255.381" cy="256" fill="#ff473e" r="92.048"/><path d="m346.636 245.675c-2.258-10.955-10.722-35.009-41.54-35.009-39.905 0-53.429 81.667-100.095 81.667-37 0-41.667-36.334-41.667-36.334 0 50.837 41.211 92.048 92.048 92.048s92.048-41.211 92.048-92.048c0-2.295-.087-4.57-.252-6.824-.128-.875-.307-2.052-.542-3.5z" fill="#0b67b2"/><path d="m42.333 199.333c-2.794-2.794-2.794-7.324 0-10.118l38.882-38.882c2.794-2.794 7.324-2.794 10.118 0 2.794 2.794 2.794 7.324 0 10.118l-38.882 38.882c-2.793 2.795-7.323 2.795-10.118 0zm27.113 16.994 38.882-38.882c2.794-2.794 2.794-7.324 0-10.118-2.794-2.794-7.324-2.794-10.118 0l-38.882 38.882c-2.794 2.794-2.794 7.324 0 10.118 2.794 2.795 7.324 2.795 10.118 0zm16.994 16.994 38.882-38.882c2.794-2.794 2.794-7.324 0-10.118-2.794-2.794-7.324-2.794-10.118 0l-38.882 38.882c-2.794 2.794-2.794 7.324 0 10.118 2.793 2.794 7.324 2.794 10.118 0zm318.495-88.471 38.882 38.882c2.794 2.794 7.324 2.794 10.118 0 2.794-2.794 2.794-7.324 0-10.118l-38.882-38.882c-2.794-2.794-7.324-2.794-10.118 0-2.794 2.794-2.794 7.324 0 10.118zm10.244 44.232 11.644 11.644c2.794 2.794 7.324 2.794 10.118 0 2.794-2.794 2.794-7.324 0-10.118l-11.644-11.644c-2.794-2.794-7.324-2.794-10.118 0-2.794 2.794-2.794 7.324 0 10.118zm-25.587-25.586 11.644 11.644c2.794 2.794 7.324 2.794 10.118 0 2.794-2.794 2.794-7.324 0-10.118l-11.644-11.644c-2.794-2.794-7.324-2.794-10.118 0-2.794 2.794-2.794 7.324 0 10.118zm59.575-8.402 11.644 11.644c2.794 2.794 7.324 2.794 10.118 0 2.794-2.794 2.794-7.324 0-10.118l-11.644-11.644c-2.794-2.794-7.324-2.794-10.118 0-2.794 2.794-2.794 7.324 0 10.118zm-25.587-25.586 11.644 11.644c2.794 2.794 7.324 2.794 10.118 0 2.794-2.794 2.794-7.324 0-10.118l-11.644-11.644c-2.794-2.794-7.324-2.794-10.118 0-2.794 2.794-2.794 7.324 0 10.118zm-299.91 235.879-37.23-37.23c-2.794-2.794-7.324-2.794-10.118 0-2.794 2.794-2.794 7.324 0 10.118l37.23 37.23c2.794 2.794 7.324 2.794 10.118 0 2.794-2.794 2.794-7.324 0-10.118zm-33.988 33.988-37.23-37.23c-2.794-2.794-7.324-2.794-10.118 0-2.794 2.794-2.794 7.324 0 10.118l37.23 37.23c2.794 2.794 7.324 2.794 10.118 0 2.794-2.794 2.794-7.324 0-10.118zm-8.593-42.581-11.644-11.644c-2.794-2.794-7.324-2.794-10.118 0-2.794 2.794-2.794 7.324 0 10.118l11.644 11.644c2.794 2.794 7.324 2.794 10.118 0 2.794-2.793 2.794-7.324 0-10.118zm25.587 25.587-11.644-11.644c-2.794-2.794-7.324-2.794-10.118 0-2.794 2.794-2.794 7.324 0 10.118l11.644 11.644c2.794 2.794 7.324 2.794 10.118 0 2.794-2.794 2.794-7.324 0-10.118zm351.784-30.244 11.644-11.644c2.794-2.794 2.794-7.324 0-10.118-2.794-2.794-7.324-2.794-10.118 0l-11.644 11.644c-2.794 2.794-2.794 7.324 0 10.118 2.793 2.794 7.324 2.794 10.118 0zm-25.587 25.587 11.644-11.644c2.794-2.794 2.794-7.324 0-10.118-2.794-2.794-7.324-2.794-10.118 0l-11.644 11.644c-2.794 2.794-2.794 7.324 0 10.118 2.794 2.794 7.324 2.794 10.118 0zm-8.401-59.575 11.644-11.644c2.794-2.794 2.794-7.324 0-10.118-2.794-2.794-7.324-2.794-10.118 0l-11.644 11.644c-2.794 2.794-2.794 7.324 0 10.118 2.794 2.794 7.324 2.794 10.118 0zm-25.587 25.587 11.644-11.644c2.794-2.794 2.794-7.324 0-10.118-2.794-2.794-7.324-2.794-10.118 0l-11.644 11.644c-2.794 2.794-2.794 7.324 0 10.118 2.794 2.794 7.324 2.794 10.118 0zm42.581-8.593 11.644-11.644c2.794-2.794 2.794-7.324 0-10.118-2.794-2.794-7.324-2.794-10.118 0l-11.644 11.644c-2.794 2.794-2.794 7.324 0 10.118 2.794 2.794 7.324 2.794 10.118 0zm-25.587 25.587 11.644-11.644c2.794-2.794 2.794-7.324 0-10.118-2.794-2.794-7.324-2.794-10.118 0l-11.644 11.644c-2.794 2.794-2.794 7.324 0 10.118 2.794 2.794 7.324 2.794 10.118 0z" fill="#2b3b47"/></svg>